<svg xmlns="http://www.w3.org/2000/svg" width="315" height="148" fill="none" viewBox="0 0 315 148"><rect width="315" height="148" fill="#fff"/><path fill="#4460F1" d="M146.865 105.338C146.219 105.338 145.687 105.129 145.269 104.711C144.851 104.331 144.642 103.799 144.642 103.115C144.642 102.469 144.851 101.937 145.269 101.519C145.687 101.101 146.219 100.892 146.865 100.892C149.487 100.892 151.634 100.056 153.306 98.384C154.978 96.712 155.814 94.584 155.814 92V63.044C155.814 62.36 156.004 61.828 156.384 61.448C156.802 61.03 157.334 60.821 157.98 60.821C158.626 60.821 159.158 61.03 159.576 61.448C159.994 61.828 160.203 62.36 160.203 63.044V92C160.203 94.584 159.633 96.883 158.493 98.897C157.353 100.911 155.776 102.488 153.762 103.628C151.748 104.768 149.449 105.338 146.865 105.338ZM157.923 54.893C157.087 54.893 156.365 54.589 155.757 53.981C155.149 53.373 154.845 52.632 154.845 51.758C154.845 50.808 155.149 50.067 155.757 49.535C156.403 48.965 157.144 48.68 157.98 48.68C158.778 48.68 159.481 48.965 160.089 49.535C160.735 50.067 161.058 50.808 161.058 51.758C161.058 52.632 160.754 53.373 160.146 53.981C159.538 54.589 158.797 54.893 157.923 54.893ZM186.831 92.285C184.589 92.285 182.366 91.905 180.162 91.145C177.958 90.385 176.172 89.245 174.804 87.725C174.386 87.269 174.215 86.756 174.291 86.186C174.367 85.616 174.652 85.122 175.146 84.704C175.678 84.324 176.229 84.172 176.799 84.248C177.369 84.324 177.844 84.571 178.224 84.989C179.136 86.053 180.333 86.87 181.815 87.44C183.335 88.01 185.007 88.295 186.831 88.295C189.643 88.295 191.676 87.82 192.93 86.87C194.184 85.882 194.83 84.704 194.868 83.336C194.868 81.968 194.222 80.847 192.93 79.973C191.638 79.061 189.51 78.358 186.546 77.864C182.708 77.256 179.896 76.192 178.11 74.672C176.324 73.152 175.431 71.347 175.431 69.257C175.431 67.319 175.944 65.704 176.97 64.412C177.996 63.12 179.364 62.151 181.074 61.505C182.784 60.859 184.665 60.536 186.717 60.536C189.263 60.536 191.448 60.973 193.272 61.847C195.134 62.721 196.635 63.899 197.775 65.381C198.155 65.875 198.307 66.388 198.231 66.92C198.155 67.452 197.851 67.889 197.319 68.231C196.863 68.497 196.331 68.592 195.723 68.516C195.153 68.402 194.659 68.117 194.241 67.661C192.379 65.533 189.833 64.469 186.603 64.469C184.513 64.469 182.841 64.906 181.587 65.78C180.333 66.616 179.706 67.68 179.706 68.972C179.706 70.264 180.257 71.328 181.359 72.164C182.499 73 184.627 73.684 187.743 74.216C190.593 74.672 192.835 75.356 194.469 76.268C196.141 77.142 197.319 78.187 198.003 79.403C198.725 80.581 199.086 81.873 199.086 83.279C199.086 85.065 198.554 86.642 197.49 88.01C196.464 89.34 195.02 90.385 193.158 91.145C191.334 91.905 189.225 92.285 186.831 92.285ZM214.365 92C213.681 92 213.13 91.81 212.712 91.43C212.332 91.012 212.142 90.461 212.142 89.777V63.044C212.142 62.36 212.332 61.828 212.712 61.448C213.13 61.03 213.681 60.821 214.365 60.821C215.011 60.821 215.524 61.03 215.904 61.448C216.322 61.828 216.531 62.36 216.531 63.044V89.777C216.531 90.461 216.322 91.012 215.904 91.43C215.524 91.81 215.011 92 214.365 92ZM214.308 54.893C213.472 54.893 212.75 54.589 212.142 53.981C211.534 53.373 211.23 52.632 211.23 51.758C211.23 50.808 211.534 50.067 212.142 49.535C212.788 48.965 213.529 48.68 214.365 48.68C215.163 48.68 215.866 48.965 216.474 49.535C217.12 50.067 217.443 50.808 217.443 51.758C217.443 52.632 217.139 53.373 216.531 53.981C215.923 54.589 215.182 54.893 214.308 54.893ZM234.49 92C233.806 92 233.255 91.81 232.837 91.43C232.457 91.012 232.267 90.48 232.267 89.834V63.044C232.267 62.36 232.457 61.828 232.837 61.448C233.255 61.03 233.806 60.821 234.49 60.821C235.136 60.821 235.649 61.03 236.029 61.448C236.447 61.828 236.656 62.36 236.656 63.044V64.982C237.872 63.576 239.373 62.474 241.159 61.676C242.983 60.878 244.94 60.479 247.03 60.479C249.728 60.479 252.141 61.049 254.269 62.189C256.397 63.291 258.069 64.925 259.285 67.091C260.539 69.257 261.166 71.898 261.166 75.014V89.834C261.166 90.442 260.957 90.955 260.539 91.373C260.121 91.791 259.608 92 259 92C258.354 92 257.822 91.791 257.404 91.373C256.986 90.955 256.777 90.442 256.777 89.834V75.014C256.777 71.48 255.789 68.877 253.813 67.205C251.875 65.495 249.462 64.64 246.574 64.64C244.712 64.64 243.021 65.001 241.501 65.723C240.019 66.445 238.841 67.433 237.967 68.687C237.093 69.941 236.656 71.366 236.656 72.962V89.834C236.656 90.48 236.447 91.012 236.029 91.43C235.649 91.81 235.136 92 234.49 92ZM287.6 92C285.586 92 283.781 91.525 282.185 90.575C280.627 89.625 279.392 88.333 278.48 86.699C277.568 85.027 277.112 83.127 277.112 80.999V65.78H273.407C272.837 65.78 272.362 65.609 271.982 65.267C271.602 64.887 271.412 64.431 271.412 63.899C271.412 63.329 271.602 62.873 271.982 62.531C272.362 62.151 272.837 61.961 273.407 61.961H277.112V53.126C277.112 52.48 277.302 51.948 277.682 51.53C278.1 51.112 278.632 50.903 279.278 50.903C279.924 50.903 280.456 51.112 280.874 51.53C281.292 51.948 281.501 52.48 281.501 53.126V61.961H287.942C288.512 61.961 288.987 62.151 289.367 62.531C289.747 62.873 289.937 63.329 289.937 63.899C289.937 64.431 289.747 64.887 289.367 65.267C288.987 65.609 288.512 65.78 287.942 65.78H281.501V80.999C281.501 82.937 282.071 84.533 283.211 85.787C284.351 87.003 285.814 87.611 287.6 87.611H289.139C289.747 87.611 290.241 87.82 290.621 88.238C291.001 88.656 291.191 89.188 291.191 89.834C291.191 90.48 290.963 91.012 290.507 91.43C290.051 91.81 289.481 92 288.797 92H287.6Z"/><path fill="#3452ED" d="M75 129L25.6897 104.345V43.6552L75 68.3104V129Z"/><path fill="#4460F1" d="M75 129L124.31 104.345V43.6552L75 68.3104V129Z"/><path fill="#5671FC" d="M25.6897 43.6552L73.1035 19L124.31 43.6552L75 68.3103L25.6897 43.6552Z"/></svg>